#!OML:ASF X:\für Bonn\!DataBase\2005_08_12_Daniel\c3d\Daniel.ASF
:FULLY-SPECIFIED
:DEGREES
141
root 6.25303 16.7983 -1.38 -875.65 -78.3269 839.672
lowerback 32.3335 -0.0581761 -0.330948
upperback 8.94129 -2.27128 -8.06847
thorax -7.27815 -1.57381 -7.5074
lowerneck 9.78456 5.5983 -1.30472
upperneck 15.2516 7.02141 -4.55405
head 3.43944 2.92913 -1.29341
rclavicle 7.28049e-015 -3.10104e-014
rhumerus -34.2082 16.4143 -96.876
rradius 70.0368
rwrist 2.53256
rhand -29.1065 18.3801
rfingers 7.12502
rthumb -2.45461 -11.5856
lclavicle 7.28049e-015 -3.10104e-014
lhumerus -51.6988 11.9725 63.6851
lradius 121.799
lwrist 202.195
lhand -9.04512 17.7983
lfingers 7.12502
lthumb 16.903 47.0827
rfemur 11.7666 8.98202 17.3565
rtibia 37.059
rfoot -12.2155 4.84882
rtoes -10.3855
lfemur -69.1764 19.5409 -19.2313
ltibia 127.823
lfoot 34.6846 -17.4832
ltoes -26.5423
142
root 6.16305 16.8241 -1.3818 -875.823 -77.6595 838.236
lowerback 33.6553 0.545121 -0.287357
upperback 9.37133 -1.67362 -8.40489
thorax -7.26313 -1.32178 -8.10422
lowerneck 10.5526 5.44585 -1.42249
upperneck 15.7436 6.70448 -4.11881
head 3.45025 2.75484 -1.14812
rclavicle 1.22004e-014 3.97569e-014
rhumerus -34.5967 17.5271 -96.5499
rradius 71.3819
rwrist 1.1778
rhand -29.6314 18.8551
rfingers 7.12502
rthumb -2.96148 -11.104
lclavicle 1.22004e-014 3.97569e-014
lhumerus -51.4246 11.9967 63.2198
lradius 121.958
lwrist 202.469
lhand -8.954 18.0046
lfingers 7.12502
lthumb 16.9907 47.2815
rfemur 14.4057 8.89238 16.8081
rtibia 35.9386
rfoot -12.3048 4.50335
rtoes -10.4154
lfemur -71.4549 19.1865 -20.1475
ltibia 126.502
lfoot 35.2313 -15.4661
ltoes -26.1062
143
root 6.0743 16.8441 -1.38329 -875.614 -77.0007 836.561
lowerback 34.8472 1.12487 -0.315564
upperback 9.75663 -1.12347 -8.70944
thorax -7.22549 -1.09 -8.62352
lowerneck 11.2586 5.34271 -1.53705
upperneck 16.3299 6.45218 -3.70355
head 3.51225 2.60561 -1.00722
rclavicle 8.99501e-015 -2.94201e-014
rhumerus -35.0342 18.6039 -96.1728
rradius 72.7099
rwrist -0.162
rhand -30.0012 19.1673
rfingers 7.12502
rthumb -3.31861 -10.7867
lclavicle 8.99501e-015 -2.94201e-014
lhumerus -51.1063 12.1379 62.8334
lradius 122.069
lwrist 202.732
lhand -8.92173 18.0923
lfingers 7.12502
lthumb 17.0218 47.3666
rfemur 16.8042 8.76964 16.1344
rtibia 34.9342
rfoot -12.4554 4.11368
rtoes -10.3699
lfemur -73.675 18.6514 -21.0516
ltibia 124.908
lfoot 35.8898 -13.0772
ltoes -24.3454
144
root 5.98575 16.8604 -1.38405 -875.262 -76.3452 834.852
lowerback 35.9191 1.68206 -0.354166
upperback 10.1276 -0.604635 -9.01355
thorax -7.1439 -0.871349 -9.13552
lowerneck 11.8394 5.25876 -1.57349
upperneck 17.0316 6.23688 -3.32209
head 3.64641 2.47207 -0.8865
rclavicle -4.60683e-014 3.57812e-014
rhumerus -35.4275 19.5685 -95.7875
rradius 73.9225
rwrist -1.52371
rhand -30.1396 19.3694
rfingers 7.12502
rthumb -3.45226 -10.5824
lclavicle -4.60683e-014 3.57812e-014
lhumerus -50.943 12.3904 62.432
lradius 122.29
lwrist 203.094
lhand -8.99132 18.0825
lfingers 7.12502
lthumb 16.9548 47.3625
rfemur 19.0067 8.65591 15.3753
rtibia 34.0248
rfoot -12.6066 3.73904
rtoes -10.0265
lfemur -75.7651 17.9883 -21.8475
ltibia 123.012
lfoot 36.0515 -10.6317
ltoes -23.8399
145
root 5.90044 16.8768 -1.38603 -874.704 -75.7296 833.038
lowerback 36.9136 2.20279 -0.421633
upperback 10.4701 -0.139356 -9.29988
thorax -7.05562 -0.676356 -9.60024
lowerneck 12.2574 5.22535 -1.62742
upperneck 17.8725 6.08676 -2.91492
head 3.8631 2.36385 -0.749522
rclavicle -4.9075e-014 4.92986e-014
rhumerus -35.7895 20.4221 -95.3742
rradius 75.0291
rwrist -2.78972
rhand -30.0269 19.3875
rfingers 7.12502
rthumb -3.34341 -10.566
lclavicle -4.9075e-014 4.92986e-014
lhumerus -50.8253 12.8094 62.0547
lradius 122.526
lwrist 203.485
lhand -9.28718 18.0233
lfingers 7.12502
lthumb 16.67 47.3275
rfemur 21.0425 8.55605 14.5666
rtibia 33.1866
rfoot -12.7979 3.37557
rtoes -9.61198
lfemur -77.6312 17.2213 -22.4884
ltibia 120.755
lfoot 35.91 -8.25628
ltoes -22.5837
146
root 5.81601 16.8927 -1.38964 -874.091 -75.1431 831.28
lowerback 37.7995 2.69805 -0.540015
upperback 10.7766 0.285718 -9.54378
thorax -6.95936 -0.498334 -9.98066
lowerneck 12.6087 5.2427 -1.68867
upperneck 18.7899 6.00145 -2.54597
head 4.12778 2.28186 -0.621494
rclavicle -1.22128e-014 -6.20208e-014
rhumerus -36.1397 21.1944 -94.9377
rradius 76.0173
rwrist -3.89045
rhand -29.6837 19.273
rfingers 7.12502
rthumb -3.01203 -10.6855
lclavicle -1.22128e-014 -6.20208e-014
lhumerus -50.847 13.3981 61.7202
lradius 122.787
lwrist 203.884
lhand -9.71182 17.9405
lfingers 7.12502
lthumb 16.2611 47.2786
rfemur 22.9455 8.54405 13.7864
rtibia 32.3741
rfoot -12.9857 2.98736
rtoes -8.89007
lfemur -79.2052 16.4411 -22.9345
ltibia 118.103
lfoot 35.7001 -6.10322
ltoes -19.0758
147
root 5.73077 16.9079 -1.39457 -873.267 -74.6232 829.417
lowerback 38.5558 3.14865 -0.673233
upperback 11.0842 0.658842 -9.77211
thorax -6.81557 -0.342454 -10.318
lowerneck 12.8808 5.31015 -1.81043
upperneck 19.7312 5.96682 -2.10909
head 4.41719 2.22227 -0.457156
rclavicle 3.59303e-014 6.52014e-014
rhumerus -36.4757 21.8419 -94.5108
rradius 76.939
rwrist -4.80565
rhand -29.1744 18.9717
rfingers 7.12502
rthumb -2.52011 -10.9931
lclavicle 3.59303e-014 6.52014e-014
lhumerus -50.8849 14.0814 61.4234
lradius 123.068
lwrist 204.3
lhand -10.243 17.8398
lfingers 7.12502
lthumb 15.7496 47.2189
rfemur 24.7816 8.54809 12.9921
rtibia 31.4718
rfoot -13.1189 2.65278
rtoes -8.07862
lfemur -80.4828 15.5842 -23.2083
ltibia 115.031
lfoot 35.2224 -4.6178
ltoes -18.0043
148
root 5.64486 16.9231 -1.40145 -872.435 -74.1752 827.665
lowerback 39.2048 3.56678 -0.763431
upperback 11.3688 1.02007 -9.98304
thorax -6.65537 -0.18794 -10.6572
lowerneck 13.1306 5.38785 -1.86981
upperneck 20.719 5.9448 -1.6864
head 4.7386 2.1708 -0.305261
rclavicle 1.1281e-014 -4.45278e-014
rhumerus -36.8334 22.2364 -94.1222
rradius 77.7578
rwrist -5.46928
rhand -28.5947 18.7061
rfingers 7.12502
rthumb -1.96031 -11.2646
lclavicle 1.1281e-014 -4.45278e-014
lhumerus -50.9209 14.7621 61.1639
lradius 123.382
lwrist 204.712
lhand -10.8199 17.7131
lfingers 7.12502
lthumb 15.194 47.1353
rfemur 26.5992 8.62387 12.2919
rtibia 30.3916
rfoot -13.162 2.3167
rtoes -7.07205
lfemur -81.4341 14.6877 -23.2671
ltibia 111.497
lfoot 34.3179 -3.23528
ltoes -19.3644
